<svg width="30" height="26" viewBox="0 0 30 26" fill="none" xmlns="http://www.w3.org/2000/svg">
<path d="M3.86634 13.0663L15 24.2L26.1337 13.0663C27.3714 11.8286 28.0667 10.15 28.0667 8.39965C28.0667 4.75476 25.1119 1.79999 21.467 1.79999C19.7167 1.79999 18.038 2.49531 16.8004 3.73298L15 5.53332L13.1997 3.73298C11.962 2.49531 10.2834 1.79999 8.53301 1.79999C4.88812 1.79999 1.93335 4.75476 1.93335 8.39965C1.93335 10.15 2.62867 11.8286 3.86634 13.0663Z" fill="#FF3205"/>
<path d="M15 24.2L14.2929 24.9071C14.4804 25.0946 14.7348 25.2 15 25.2C15.2652 25.2 15.5196 25.0946 15.7071 24.9071L15 24.2ZM3.86634 13.0663L3.15924 13.7734L3.15924 13.7734L3.86634 13.0663ZM13.1997 3.73298L12.4926 4.44009L13.1997 3.73298ZM15 5.53332L14.2929 6.24043C14.6834 6.63095 15.3166 6.63095 15.7071 6.24043L15 5.53332ZM16.8004 3.73298L16.0932 3.02588V3.02588L16.8004 3.73298ZM15.7071 23.4929L4.57345 12.3592L3.15924 13.7734L14.2929 24.9071L15.7071 23.4929ZM25.4266 12.3592L14.2929 23.4929L15.7071 24.9071L26.8408 13.7734L25.4266 12.3592ZM12.4926 4.44009L14.2929 6.24043L15.7071 4.82621L13.9068 3.02588L12.4926 4.44009ZM15.7071 6.24043L17.5075 4.44009L16.0932 3.02588L14.2929 4.82621L15.7071 6.24043ZM21.467 0.799988C19.4515 0.799988 17.5185 1.60066 16.0932 3.02588L17.5075 4.44009C18.5576 3.38995 19.9819 2.79999 21.467 2.79999V0.799988ZM27.0667 8.39965C27.0667 9.88477 26.4767 11.3091 25.4266 12.3592L26.8408 13.7734C28.266 12.3482 29.0667 10.4152 29.0667 8.39965H27.0667ZM29.0667 8.39965C29.0667 4.20247 25.6642 0.799988 21.467 0.799988V2.79999C24.5596 2.79999 27.0667 5.30704 27.0667 8.39965H29.0667ZM8.53301 2.79999C10.0181 2.79999 11.4424 3.38995 12.4926 4.44009L13.9068 3.02588C12.4816 1.60066 10.5486 0.799988 8.53301 0.799988V2.79999ZM2.93335 8.39965C2.93335 5.30704 5.4404 2.79999 8.53301 2.79999V0.799988C4.33583 0.799988 0.93335 4.20247 0.93335 8.39965H2.93335ZM4.57345 12.3592C3.52331 11.3091 2.93335 9.88478 2.93335 8.39965H0.93335C0.93335 10.4152 1.73402 12.3482 3.15924 13.7734L4.57345 12.3592Z" fill="#FF3205"/>
</svg>
