<svg width="30" height="26" viewBox="0 0 30 26" fill="none" xmlns="http://www.w3.org/2000/svg">
<path d="M15 24.2L14.2929 24.9072C14.4804 25.0947 14.7348 25.2 15 25.2C15.2652 25.2 15.5196 25.0947 15.7071 24.9072L15 24.2ZM3.86634 13.0664L3.15924 13.7735L3.15924 13.7735L3.86634 13.0664ZM13.1997 3.73305L12.4926 4.44015L13.1997 3.73305ZM15 5.53338L14.2929 6.24049C14.6834 6.63101 15.3166 6.63101 15.7071 6.24049L15 5.53338ZM16.8004 3.73304L16.0932 3.02594V3.02594L16.8004 3.73304ZM15.7071 23.4929L4.57345 12.3593L3.15924 13.7735L14.2929 24.9072L15.7071 23.4929ZM25.4266 12.3593L14.2929 23.4929L15.7071 24.9072L26.8408 13.7735L25.4266 12.3593ZM12.4926 4.44015L14.2929 6.24049L15.7071 4.82628L13.9068 3.02594L12.4926 4.44015ZM15.7071 6.24049L17.5075 4.44015L16.0932 3.02594L14.2929 4.82628L15.7071 6.24049ZM21.467 0.800049C19.4515 0.800049 17.5185 1.60072 16.0932 3.02594L17.5075 4.44015C18.5576 3.39001 19.9819 2.80005 21.467 2.80005V0.800049ZM27.0667 8.39971C27.0667 9.88484 26.4767 11.3091 25.4266 12.3593L26.8408 13.7735C28.266 12.3483 29.0667 10.4153 29.0667 8.39971H27.0667ZM29.0667 8.39971C29.0667 4.20253 25.6642 0.800049 21.467 0.800049V2.80005C24.5596 2.80005 27.0667 5.3071 27.0667 8.39971H29.0667ZM8.53301 2.80005C10.0181 2.80005 11.4424 3.39001 12.4926 4.44015L13.9068 3.02594C12.4816 1.60073 10.5486 0.800049 8.53301 0.800049V2.80005ZM2.93335 8.39971C2.93335 5.3071 5.4404 2.80005 8.53301 2.80005V0.800049C4.33583 0.800049 0.93335 4.20253 0.93335 8.39971H2.93335ZM4.57345 12.3593C3.52331 11.3091 2.93335 9.88484 2.93335 8.39971H0.93335C0.93335 10.4153 1.73402 12.3483 3.15924 13.7735L4.57345 12.3593Z" fill="#6C6868"/>
</svg>
