<svg width="14" height="15" viewBox="0 0 14 15" fill="none" xmlns="http://www.w3.org/2000/svg">
<path d="M6.7066 0.00274765C6.50391 -0.0027381 6.31797 0.114737 6.23588 0.300147C6.15379 0.485558 6.19181 0.702186 6.33213 0.848565C7.36577 1.92686 8.00015 3.3888 8.00015 4.99996C8.00015 8.31366 5.31385 11 2.00015 11C1.5757 11 1.16207 10.956 0.763392 10.8725C0.564893 10.8309 0.360941 10.9133 0.247097 11.0812C0.133253 11.249 0.13207 11.469 0.244102 11.638C1.58602 13.663 3.88682 15 6.50012 15C10.6423 15 14.0001 11.6421 14.0001 7.49996C14.0001 3.42688 10.7534 0.112271 6.7066 0.00274765Z" fill="#4B4B4D"/>
</svg>
